<?xml version="1.0" encoding="utf-8"?>
<!-- Generator: Adobe Illustrator 24.3.0, SVG Export Plug-In . SVG Version: 6.00 Build 0)  -->
<svg version="1.1" id="Layer_1" xmlns="http://www.w3.org/2000/svg" xmlns:xlink="http://www.w3.org/1999/xlink" x="0px" y="0px"
	 viewBox="0 0 512 512" style="enable-background:new 0 0 512 512;" xml:space="preserve">
<style type="text/css">
	.st0{fill:#48465B;}
</style>
<g>
	<path class="st0" d="M124.8,466.3v-45.4c0-8.3,6.7-15,15-15h278V18.7c0-10.3-8.4-18.7-18.7-18.7H52.2C41.9,0,33.5,8.4,33.5,18.7
		v447.6C36,526.9,122.3,526.9,124.8,466.3L124.8,466.3z M277.5,73.2h77.1c19.9,0.8,19.9,29.2,0,30h-77.1
		C257.6,102.4,257.6,74,277.5,73.2z M277.5,149.7h77.1c19.9,0.8,19.9,29.2,0,30h-77.1C257.6,178.9,257.6,150.5,277.5,149.7z
		 M277.5,226.2h77.1c19.9,0.8,19.9,29.2,0,30h-77.1C257.6,255.4,257.6,227,277.5,226.2z M71,227.4c0-26.8,14-50.3,35-63.7
		c-31.2-34.3-6.2-90.7,40.6-90.5c46.8-0.2,71.7,56.2,40.6,90.5c21,13.4,35,37,35,63.7v13.8c0,8.3-6.7,15-15,15H86
		c-8.3,0-15-6.7-15-15V227.4z M71,317.7c0-8.3,6.7-15,15-15h268.6c19.9,0.8,19.9,29.2,0,30H86C77.7,332.7,71,326,71,317.7z"/>
	<path class="st0" d="M478.5,454.7c0-10.3-8.4-18.7-18.7-18.7H154.8v30.4c0,17.1-5.7,33-15.4,45.7h293.4c25.2,0,45.7-20.5,45.7-45.7
		L478.5,454.7z"/>
	<path class="st0" d="M192.2,226.2c-0.7-24.5-20.8-44.3-45.5-44.3h-0.1c-24.7,0-44.9,19.8-45.5,44.3L192.2,226.2z"/>
	<path class="st0" d="M146.6,151.9c13.5,0,24.4-10.9,24.4-24.3c-1.3-32.3-47.5-32.3-48.8,0C122.2,140.9,133.2,151.9,146.6,151.9z"/>
</g>
</svg>
