<?xml version="1.0" encoding="utf-8"?>
<!-- Generator: Adobe Illustrator 24.3.0, SVG Export Plug-In . SVG Version: 6.00 Build 0)  -->
<svg version="1.1" id="Capa_1" xmlns="http://www.w3.org/2000/svg" xmlns:xlink="http://www.w3.org/1999/xlink" x="0px" y="0px"
	 viewBox="0 0 512 512" style="enable-background:new 0 0 512 512;" xml:space="preserve">
<style type="text/css">
	.st0{fill:#EA3D56;}
</style>
<g>
	<g>
		<path class="st0" d="M278.6,224V110.2c24.3,4.1,47.3,14.1,66.9,29.1c3.9,2.7,8.5,4.1,13.3,4.2c15.2,0,27.6-12.2,27.8-27.5
			c0-6.5-2.5-12.8-7.1-17.5C351.1,74.3,315.6,60,278.3,57.9V19.7c0-10.9-8.8-19.7-19.7-19.7c-0.2,0-0.5,0-0.7,0
			c-11.1-0.2-20.2,8.7-20.3,19.7v36.8c-72.7,5.2-122.2,50.1-122.2,109.9c0,73.4,62.4,93.7,122.2,109.9v129.3
			c-31.5-4.2-61.3-17.3-85.6-37.8c-4.6-3.7-10.3-5.7-16.2-5.8c-14.9,1-26.4,13.5-26.2,28.4c0,6.5,2.5,12.8,7.1,17.5
			c33.4,30.1,76.3,47.3,121.2,48.8v35.6c0,0.2,0,0.5,0,0.7c0.5,11.1,9.9,19.6,21,19c10.9,0,19.7-8.8,19.7-19.7v-36.2
			c88.2-5.8,123.8-59.5,123.8-116.3C402.4,263.4,338.4,240.2,278.6,224z M237.9,213.7c-35.2-10.3-62.7-21-62.7-51.1
			s24.9-51.7,62.7-54.6V213.7z M278.6,406.3V288.6c36.5,10.3,65,24.2,64.6,58.2C343.3,371.4,326.5,400.5,278.6,406.3z"/>
	</g>
</g>
</svg>
