<svg id="Capa_1" data-name="Capa 1" xmlns="http://www.w3.org/2000/svg" viewBox="0 0 48.6 48.6"><defs><style>.cls-1{fill:#fff;}</style></defs><polygon class="cls-1" points="35.4 10.8 35.5 11.2 34.9 11.3 34.9 12.1 35.5 12.1 36.4 12 36.8 11.4 36.3 11.3 36.1 11 35.7 10.3 35.5 9.4 34.8 9.6 34.6 9.9 34.6 10.3 34.9 10.5 35.4 10.8"/><polygon class="cls-1" points="34.8 11.1 34.8 10.6 34.4 10.4 33.8 10.6 33.4 11.3 33.4 11.8 33.9 11.8 34.8 11.1"/><path class="cls-1" d="M22.5,13.2l-.1.3h-.6v.3H22V14h.4l.2-.2.1-.3H23l.1-.3-.3-.1Z"/><polygon class="cls-1" points="20.8 13.8 20.8 14.1 21.2 14 21.3 13.7 21 13.5 20.8 13.8"/><path class="cls-1" d="M48.6,24.1a14.77,14.77,0,0,0-.1-2.1,24.51,24.51,0,0,0-1.6-6.6c-.1-.2-.1-.3-.2-.5a23.62,23.62,0,0,0-4.6-7l-.4-.4L40.6,6.4A23.78,23.78,0,0,0,24.3,0,24,24,0,0,0,7.9,6.4a26.82,26.82,0,0,0-2.8,3A24.28,24.28,0,1,0,45.9,35.3a25,25,0,0,0,2-5.4c.1-.5.2-1,.3-1.4a29.84,29.84,0,0,0,.4-4.2ZM44,14.3l.1-.2a5.36,5.36,0,0,1,.5,1.1h-.2l-.4.1Zm-3.5-4.2V9a6.89,6.89,0,0,1,1.1,1.3l-.4.7H39.7l-.1-.3ZM11.2,7.4h.5V7.2h.8v.3l-.2.3H11.2V7.4ZM12,8.5l.5-.1v.5L11.4,9l-.2-.2Zm33.6,9.6H43.8l-1.1-.8-1.1.1v.7h-.4l-.4-.3-2-.5V16l-2.5.2-.8.4H34l-1.2.7v1.3l-2.5,1.8.2.8H31v.6l-.4.2v1.9l2.1,2.4h.9l.1-.1h1.7l.5-.4h.9l.5.5,1.4.1-.2,1.9,1.6,2.8-.8,1.6.1.7.6.6v1.8l.9,1.1v1.5h.7A22.32,22.32,0,0,1,2,24.3a21.18,21.18,0,0,1,1.8-8.7v-.7l.8-1,.9-1.5v.4l-.9,1.1a13,13,0,0,0-.8,1.7v1.3l.9.4v1.8l.9,1.5.7.1.1-.5-.9-1.3-.2-1.3h.5L6,18.9l1.2,1.8-.2.6.8,1.2,2,.5v-.3l.8.1-.1.6.6.1.9.3,1.3,1.5,1.7.1.2,1.4-1.2.8v1.2l-.2.8,1.7,2.1.1.7a6.37,6.37,0,0,0,.7.2,17,17,0,0,1,1.4,1v3.8l.5.1-.3,1.8.8,1L18.5,42l1,1.8L20.8,45h1.3l.1-.4-1-.8.1-.4.2-.5v-.5h-.7l-.3-.4.5-.5.1-.4-.6-.2v-.4l.9-.1,1.3-.6.4-.8,1.4-1.8-.3-1.4.4-.7h1.3l.9-.7.3-2.7,1-1.2.2-.8-.9-.3-.6-.9h-2l-1.6-.6-.1-1.1-.5-.9H21.2l-.8-1.3-.7-.4v.4l-1.3.1-.4-.8-1.4-.3-1.1,1.3-1.8-.3-.1-2-1.3-.2.5-1-.1-.6L10.9,22l-1.1-.1L9.5,21l.2-.9.6-1.1,1.4-.7h2.6v.8l.9.4-.1-1.4.7-.7,1.4-.9.1-.6,1.4-1.4,1.5-.8H20l1-.9.4.1.2.2.4-.4h.1l-.4-.1-.4-.1V12l.2-.2H22l.2.1.2.4h.3l.7-.1.1-.3.4.1v.4l-.4.2h0l.1.4,1.2.4h.3v-.5l-1-.4-.1-.4.8-.3V11l-.8-.5-.1-1.3-1.2.6h-.4l.1-1-1.6-.4-.7.5v1.5l-1.1.3-.5,1-.5.1V10.5l-1.1-.2-.6-.3-.2-.8,2-1.2,1-.3.1.7h.5V8.1l.6-.1V7.9l-.2-.1L20,7.4l.7-.1.4-.4h0l.1-.1,1.5-.2.6.6L21.7,8l2.2.5.3-.7h.9l.3-.6L24.8,7V6.2l-2.1-.9-1.4.2-.8.4.1,1-.9-.1-.1-.6.8-.7-1.5-.1-.4.1-.3.5.6.1-.1.6-.9.1-.1.4H16.3s0-.8-.1-.8h1.1l.7-.9-.4-.2-.6.6-1-.1L15.4,5H14.1L12.8,6H14l.1.4-.3.3h1.3l.2.5-1.5-.1-.1-.4-.9-.2-.5-.3H11.2A22.72,22.72,0,0,1,24.3,2,21.81,21.81,0,0,1,39,7.6l-.2.4-1,.4-.4.5.1.5.5.1.3.8.9-.4.2,1.1h-.3l-.8-.1-.8.1-.8,1.1-1.2.2-.2,1,.5.1-.1.6-1.1-.2-1.1.2-.2.6.2,1.2.6.3h1l.7-.1.2-.6L37.1,14l.7.1.7-.6.1.5,1.7,1.2-.2.3h-.8l.3.4.5.1.6-.2v-.7L41,15l-.2-.2-1.2-.6-.3-.9h1l.3.3.8.7v.9l.9.9.3-1.3.6-.3.1,1,.6.6h1.2l.6,1.8ZM13.3,11l.6-.3.5.1-.2.7-.6.2Zm3.1,1.7v.5H15l-.5-.2.1-.3.6-.3h.9v.3Zm.6.7v.4l-.4.2-.4.1v-.7Zm-.4-.2v-.5l.5.4Zm.2,1v.4l-.3.4h-.7l.1-.5h.3l.1-.2ZM15,13.4h.7l-.9,1.3-.4-.2.1-.6Zm3.1.7v.4h-.7l-.2-.3v-.4h.1Zm-.7-.6.2-.2.3.2-.3.2ZM46,19.3h0c.1,0,.1.2.2.3Z"/><path class="cls-1" d="M3.8,14.9v.7a13,13,0,0,1,.8-1.7Z"/></svg>