<?xml version="1.0" encoding="utf-8"?>
<!-- Generator: Adobe Illustrator 24.3.0, SVG Export Plug-In . SVG Version: 6.00 Build 0)  -->
<svg version="1.1" id="Capa_1" xmlns="http://www.w3.org/2000/svg" xmlns:xlink="http://www.w3.org/1999/xlink" x="0px" y="0px"
	 viewBox="0 0 439.3 439.3" style="enable-background:new 0 0 439.3 439.3;" xml:space="preserve">
<style type="text/css">
	.st0{fill:#48465B;}
</style>
<g>
	<g>
		<path class="st0" d="M421.4,46.3H17.9C8.2,46.3,0,54.5,0,64.3V375c0,9.7,8.2,17.9,17.9,17.9h403.5c9.7,0,17.9-8.2,17.9-17.9V64.3
			C439.3,54,431.6,46.3,421.4,46.3z M403.5,260.9l-73.2-58.4c-6.7-5.1-16.4-5.1-23,0.5l-82.4,71.7L115.7,151.8
			c-3.6-3.6-8.7-6.1-13.8-6.1s-9.7,2-13.3,5.6l-52.7,57.3V82.2h367.6V260.9z"/>
	</g>
</g>
<g>
	<g>
		<path class="st0" d="M219.6,92.9c-32.3,0-58.9,26.6-58.9,58.9s26.1,58.9,58.9,58.9s58.9-26.6,58.9-58.9
			C278.5,119,251.9,92.9,219.6,92.9z"/>
	</g>
</g>
</svg>
