<?xml version="1.0" encoding="utf-8"?>
<!-- Generator: Adobe Illustrator 24.3.0, SVG Export Plug-In . SVG Version: 6.00 Build 0)  -->
<svg version="1.1" id="Layer_1" xmlns="http://www.w3.org/2000/svg" xmlns:xlink="http://www.w3.org/1999/xlink" x="0px" y="0px"
	 viewBox="0 0 511 511" style="enable-background:new 0 0 511 511;" xml:space="preserve">
<style type="text/css">
	.st0{fill:#FFFFFF;}
</style>
<path class="st0" d="M332.9,440.7c19.1,0,34.6-15.5,34.6-34.6s-15.5-34.6-34.6-34.6s-34.6,15.5-34.6,34.6S313.8,440.7,332.9,440.7z
	 M332.9,391.3c8.1,0,14.7,6.6,14.7,14.7c0,8.1-6.6,14.7-14.7,14.7c-8.1,0-14.7-6.6-14.7-14.7C318.2,397.9,324.8,391.3,332.9,391.3z"
	/>
<path class="st0" d="M40.5,406c0,16.9,13.8,30.7,30.7,30.7h176c16.9,0,30.7-13.8,30.7-30.7s-13.8-30.7-30.7-30.7h-176
	C54.3,375.3,40.5,389.1,40.5,406z M71.2,395.3h176c5.9,0,10.8,4.8,10.8,10.8s-4.8,10.8-10.8,10.8h-176c-5.9,0-10.8-4.8-10.8-10.8
	S65.3,395.3,71.2,395.3z"/>
<path class="st0" d="M80.2,356c5.5,0,10-4.5,10-10c0-5.5-4.5-10-10-10h0c-5.5,0-10,4.5-10,10C70.2,351.6,74.7,356,80.2,356z"/>
<path class="st0" d="M407.5,186.6l36.9-66.8c2.7-4.8,0.9-10.9-3.9-13.6c-4.8-2.7-10.9-0.9-13.6,3.9L390,176.9
	c-2.1,3.8-6.9,5-10.6,2.8l-18-11.1c-4.7-2.9-10.8-1.4-13.7,3.3c-2.9,4.7-1.4,10.8,3.3,13.7l18,11.1
	C382.4,205,399.9,200.3,407.5,186.6z"/>
<path class="st0" d="M395.8,265.1h0.1c62.9,0,114.1-51.2,114.1-114.1c0-63.5-51.8-115-115.7-114.1c-61.2,0.8-111.2,50.5-112.4,111.7
	c-0.3,13.8,1.9,27.4,6.3,40.1H94.6c-24.5,0-46.7,15.4-55.2,38.4C5.9,317.2,2.6,334,1.2,344.7c0,0,0,0,0,0c0,0,0,0,0,0
	c-0.2,1.3-0.3,2.5-0.5,3.8c0,0.1,0,0.2,0,0.3C-2,371.9-0.6,384.1-1,435.2c0,22.5,18.3,40.8,40.8,40.8h338.5
	c22.5,0,40.8-18.3,40.8-40.8c-0.4-51,1.2-64.7-2.2-90.4c0,0,0,0,0-0.1c0,0,0,0,0,0c-2.1-16-24-79.5-24-79.5
	C393.9,265.2,394.8,265.1,395.8,265.1L395.8,265.1z M58.1,234c5.6-15.2,20.3-25.4,36.5-25.4h202.8c12,20.5,20.9,21.6,21.5,36.2
	l1.2,28.5c0.7,16.7,19.7,25.8,33.2,16.1l21.6-15.6c0,0,19.4,56.4,20.5,62.3H120.1c-5.5,0-10,4.5-10,10c0,5.5,4.5,10,10,10h278
	c1.4,14.5,1,19.7,1,79.2c0,11.5-9.3,20.8-20.8,20.8H39.8c-11.5,0-20.8-9.3-20.8-20.8c0-58.8-0.3-64.6,1-79.2h20.3
	c5.5,0,10-4.5,10-10c0-5.5-4.5-10-10-10H22.8C23.9,330.1,58.1,234,58.1,234z M367.9,254.2c-35.4,25.7-24.2,17.8-26.5,19.2
	c-0.5,0.3-1.4,0-1.4-0.8l-1.2-28.5c-0.4-10.7-4.7-21.2-12.1-29.2c0,0,0,0,0,0c-16-17.4-25.4-40.7-24.9-65.8
	c1-50.4,42.3-91.4,92.8-92.1c0.5,0,0.9,0,1.3,0c51.6,0,94.1,41.7,94.1,94.1c0,51.9-42.2,94.1-94.1,94.1h-0.1c0,0,0,0,0,0
	C385.5,245.1,375.9,248.4,367.9,254.2z"/>
</svg>
