<?xml version="1.0" encoding="utf-8"?>
<!-- Generator: Adobe Illustrator 24.3.0, SVG Export Plug-In . SVG Version: 6.00 Build 0)  -->
<svg version="1.1" id="Capa_1" xmlns="http://www.w3.org/2000/svg" xmlns:xlink="http://www.w3.org/1999/xlink" x="0px" y="0px"
	 viewBox="0 0 543.1 543.1" style="enable-background:new 0 0 543.1 543.1;" xml:space="preserve">
<style type="text/css">
	.st0{fill:#48465B;}
</style>
<g>
	<g>
		<path class="st0" d="M346.4,468.1h-18.7V171.1c0-5.1-1.9-9.5-5.6-13.2c-3.7-3.7-8.1-5.6-13.2-5.6H196.6c-5.1,0-9.5,1.9-13.2,5.6
			c-3.7,3.7-5.6,8.1-5.6,13.2v37.5c0,5.1,1.9,9.5,5.6,13.2c3.7,3.7,8.1,5.6,13.2,5.6h18.7v240.9h-18.7c-5.1,0-9.5,1.9-13.2,5.6
			c-3.7,3.7-5.6,8.1-5.6,13.2v37.5c0,5.1,1.9,9.5,5.6,13.2c3.7,3.7,8.1,5.6,13.2,5.6h149.8c5.1,0,9.5-1.9,13.2-5.6
			c3.7-3.7,5.6-8.1,5.6-13.2v-37.5c0-5.1-1.9-9.5-5.6-13.2C355.9,470,351.5,468.1,346.4,468.1z"/>
		<circle class="st0" cx="267.7" cy="62.9" r="62.9"/>
	</g>
</g>
</svg>
