<?xml version="1.0" encoding="utf-8"?>
<!-- Generator: Adobe Illustrator 24.3.0, SVG Export Plug-In . SVG Version: 6.00 Build 0)  -->
<svg version="1.1" id="Capa_1" xmlns="http://www.w3.org/2000/svg" xmlns:xlink="http://www.w3.org/1999/xlink" x="0px" y="0px"
	 viewBox="0 0 31.5 31.5" style="enable-background:new 0 0 31.5 31.5;" xml:space="preserve">
<style type="text/css">
	.st0{fill:#EA3D56;}
</style>
<g>
	<path class="st0" d="M26.9,4.7C20.8-1.5,10.8-1.6,4.7,4.6c-6.2,6.1-6.2,16.1-0.1,22.3c6.1,6.2,16.1,6.2,22.3,0.1
		C33,20.8,33.1,10.8,26.9,4.7z M22.6,3.9l-3.3,3.3c-2.2-0.9-4.7-0.9-6.9,0L9,3.9C13.2,1.5,18.4,1.5,22.6,3.9z M7.2,19.2l-3.3,3.3
		c-2.4-4.2-2.4-9.4,0-13.6l3.3,3.3C6.3,14.5,6.3,17,7.2,19.2z M8.9,27.6l3.3-3.3c2.2,0.9,4.7,0.9,6.9,0l3.3,3.3
		C18.3,30,13.1,30,8.9,27.6z M20.8,20.8c-2.8,2.8-7.3,2.8-10.1,0c-2.8-2.8-2.8-7.3,0-10.1s7.3-2.8,10.1,0
		C23.6,13.5,23.6,18,20.8,20.8z M24.3,19.2c0.9-2.2,0.9-4.7,0-6.9L27.6,9c2.4,4.2,2.4,9.4,0,13.6L24.3,19.2z"/>
</g>
</svg>
