<?xml version="1.0" encoding="utf-8"?>
<!-- Generator: Adobe Illustrator 24.3.0, SVG Export Plug-In . SVG Version: 6.00 Build 0)  -->
<svg version="1.1" id="Capa_1" xmlns="http://www.w3.org/2000/svg" xmlns:xlink="http://www.w3.org/1999/xlink" x="0px" y="0px"
	 viewBox="0 0 512 512" style="enable-background:new 0 0 512 512;" xml:space="preserve">
<style type="text/css">
	.st0{fill:#FFFFFF;}
</style>
<g>
	<path class="st0" d="M482,25H30C13.5,25,0,38.5,0,55v298c0,16.5,13.5,30,30,30h452c16.5,0,30-13.5,30-30V55
		C512,38.5,498.5,25,482,25z"/>
	<path class="st0" d="M416,457h-81v-44H177v44H96c-8.3,0-15,6.7-15,15s6.7,15,15,15h320c8.3,0,15-6.7,15-15S424.3,457,416,457z"/>
</g>
</svg>
