<svg id="Capa_1" data-name="Capa 1" xmlns="http://www.w3.org/2000/svg" viewBox="0 0 469.22 469.31"><defs><style>.cls-1{fill:#fff;}</style></defs><path class="cls-1" d="M347.9,151.4a11,11,0,0,0-15.1,0l-202.9,203a11,11,0,0,0-3,9.3,10.62,10.62,0,0,0,5.8,7.8l16.7,8.3v28l-51,14.6L46.9,370.8l14.6-51.1h28l8.3,16.7a10.62,10.62,0,0,0,7.8,5.8,9.7,9.7,0,0,0,1.7.1,10.6,10.6,0,0,0,7.5-3.1L317.7,136.1a10.62,10.62,0,0,0,0-15L278.5,81.8a10.6,10.6,0,0,0-7.5-3.1h0a10.51,10.51,0,0,0-7.6,3.2L45.8,301.7c-.1.1-.1.3-.2.4a10.47,10.47,0,0,0-2.5,4.2L24.6,371.2.4,455.7a10.63,10.63,0,0,0,10.2,13.6,9.25,9.25,0,0,0,2.9-.4L98,444.7l64.8-18.5c.2-.1.3-.2.5-.3a6.92,6.92,0,0,0,1.9-1c.6-.4,1.2-.7,1.7-1.1a2.19,2.19,0,0,1,.5-.3L387,205.7a11.18,11.18,0,0,0,3.2-7.6,10.83,10.83,0,0,0-3.1-7.6Z" transform="translate(0.02 0.01)"/><path class="cls-1" d="M456.8,76.2l-64-64.1c-16.1-16.1-44.2-16.2-60.4,0L293.3,51.6a10.81,10.81,0,0,0,0,15.1l108.9,109a10.62,10.62,0,0,0,15,0l39.5-39.1a42.85,42.85,0,0,0,.1-60.4Z" transform="translate(0.02 0.01)"/></svg>