<svg id="Capa_1" data-name="Capa 1" xmlns="http://www.w3.org/2000/svg" viewBox="0 0 490.9 320.2"><defs><style>.cls-1{fill:#fff;}</style></defs><path class="cls-1" d="M245.3,85.3A74.7,74.7,0,1,0,320,160,74.77,74.77,0,0,0,245.3,85.3Zm0,128A53.3,53.3,0,1,1,298.6,160,53.35,53.35,0,0,1,245.3,213.3Z" transform="translate(0 -85.3)"/><path class="cls-1" d="M394.7,170.7A53.3,53.3,0,1,0,448,224,53.35,53.35,0,0,0,394.7,170.7Zm0,85.3a32,32,0,1,1,32-32A32.09,32.09,0,0,1,394.7,256Z" transform="translate(0 -85.3)"/><path class="cls-1" d="M97.5,170.7A53.3,53.3,0,1,0,150.8,224,53.35,53.35,0,0,0,97.5,170.7Zm0,85.3a32,32,0,1,1,32-32A32.09,32.09,0,0,1,97.5,256Z" transform="translate(0 -85.3)"/><path class="cls-1" d="M245.3,256c-76.5,0-138.7,62.2-138.7,138.7a10.7,10.7,0,0,0,21.4,0A117.41,117.41,0,0,1,245.3,277.4c64.7,0,117.4,52.6,117.4,117.3a10.7,10.7,0,1,0,21.4,0C384,318.2,321.8,256,245.3,256Z" transform="translate(0 -85.3)"/><path class="cls-1" d="M394.7,298.7A95.32,95.32,0,0,0,345,312.6a10.7,10.7,0,1,0,11.1,18.3,74.71,74.71,0,0,1,113.4,63.9,10.7,10.7,0,0,0,21.4,0C490.7,341.7,447.6,298.7,394.7,298.7Z" transform="translate(0 -85.3)"/><path class="cls-1" d="M145.7,312.5A96.09,96.09,0,0,0,0,394.7a10.7,10.7,0,0,0,21.4,0A74.77,74.77,0,0,1,96.1,320a73.73,73.73,0,0,1,38.6,10.8,10.68,10.68,0,1,0,11-18.3Z" transform="translate(0 -85.3)"/></svg>