<svg id="Capa_1" data-name="Capa 1" xmlns="http://www.w3.org/2000/svg" viewBox="0 0 512 446.74"><defs><style>.cls-1{fill:#fff;}</style></defs><circle class="cls-1" cx="256" cy="87" r="87"/><circle class="cls-1" cx="432" cy="119" r="55"/><circle class="cls-1" cx="80" cy="119" r="55"/><path class="cls-1" d="M134.19,256c-21.65-17.74-41.26-15.39-66.29-15.39C30.46,240.63,0,270.91,0,308.12V417.33a29.38,29.38,0,0,0,29.41,29.3c70,0,61.59,1.27,61.59-3C91,366.22,81.83,309.47,134.19,256Z" transform="translate(0 -32.63)"/><path class="cls-1" d="M279.81,241c-43.72-3.65-81.73,0-114.51,27.1C110.44,312.07,121,371.23,121,443.61a35.08,35.08,0,0,0,35,35c211.08,0,219.48,6.81,232-20.91,4.1-9.37,3-6.4,3-96.07C391,290.42,329.33,241,279.81,241Z" transform="translate(0 -32.63)"/><path class="cls-1" d="M444.1,240.63c-25.17,0-44.67-2.32-66.29,15.39C429.77,309.08,421,362,421,443.61c0,4.31-7,3,60.54,3A30.43,30.43,0,0,0,512,416.29V308.12C512,270.91,481.54,240.63,444.1,240.63Z" transform="translate(0 -32.63)"/></svg>